<mxfile host="65bd71144e">
    <diagram id="DSSGE28hpi2YMDVWKgdx" name="Page-1">
        <mxGraphModel dx="812" dy="1829" grid="1" gridSize="10" guides="1" tooltips="1" connect="1" arrows="1" fold="1" page="1" pageScale="1" pageWidth="850" pageHeight="1100" math="0" shadow="0">
            <root>
                <mxCell id="0"/>
                <mxCell id="1" parent="0"/>
                <mxCell id="12" style="edgeStyle=none;html=1;exitX=0.5;exitY=1;exitDx=0;exitDy=0;entryX=0.5;entryY=0;entryDx=0;entryDy=0;" edge="1" parent="1" source="2" target="9">
                    <mxGeometry relative="1" as="geometry"/>
                </mxCell>
                <mxCell id="15" style="edgeStyle=none;html=1;exitX=0;exitY=0.5;exitDx=0;exitDy=0;entryX=1;entryY=0;entryDx=0;entryDy=0;" edge="1" parent="1" source="2" target="3">
                    <mxGeometry relative="1" as="geometry"/>
                </mxCell>
                <mxCell id="2" value="App&lt;br&gt;&lt;br&gt;state: plants, search&lt;br&gt;Effect: FETCH&lt;br&gt;&lt;br&gt;cb: addPlant&lt;br&gt;cb: updatePlant&lt;br&gt;cb: searchPlant&lt;br&gt;cb: filteredPlants&lt;br&gt;cb: updatePrice&lt;br&gt;cb: deletePlant" style="whiteSpace=wrap;html=1;" vertex="1" parent="1">
                    <mxGeometry x="370" y="-70" width="160" height="180" as="geometry"/>
                </mxCell>
                <mxCell id="3" value="Header" style="whiteSpace=wrap;html=1;" vertex="1" parent="1">
                    <mxGeometry x="130" y="105" width="120" height="60" as="geometry"/>
                </mxCell>
                <mxCell id="19" style="edgeStyle=none;html=1;exitX=0.5;exitY=1;exitDx=0;exitDy=0;entryX=0.5;entryY=0;entryDx=0;entryDy=0;" edge="1" parent="1" source="4" target="7">
                    <mxGeometry relative="1" as="geometry"/>
                </mxCell>
                <mxCell id="4" value="PlanList" style="whiteSpace=wrap;html=1;" vertex="1" parent="1">
                    <mxGeometry x="640" y="360" width="120" height="60" as="geometry"/>
                </mxCell>
                <mxCell id="5" value="NewPlantForm&lt;br&gt;&lt;br&gt;POST&lt;br&gt;UseState: form&lt;br&gt;&lt;br&gt;handleSubmit&lt;br&gt;handleChange" style="whiteSpace=wrap;html=1;" vertex="1" parent="1">
                    <mxGeometry x="380" y="370" width="140" height="130" as="geometry"/>
                </mxCell>
                <mxCell id="7" value="PlantCard&lt;br&gt;&lt;br&gt;state: price&lt;br&gt;&lt;br&gt;PATCH &amp;amp; DELETE&lt;br&gt;&lt;br&gt;onClick: handleStock, handlePrice" style="whiteSpace=wrap;html=1;" vertex="1" parent="1">
                    <mxGeometry x="640" y="530" width="120" height="140" as="geometry"/>
                </mxCell>
                <mxCell id="8" value="Search&lt;br&gt;&lt;br&gt;state: form&lt;br&gt;&lt;br&gt;handleSubmit&amp;nbsp;&lt;br&gt;handleChange&amp;nbsp;" style="whiteSpace=wrap;html=1;" vertex="1" parent="1">
                    <mxGeometry x="130" y="340" width="130" height="100" as="geometry"/>
                </mxCell>
                <mxCell id="13" style="edgeStyle=none;html=1;exitX=0.5;exitY=1;exitDx=0;exitDy=0;" edge="1" parent="1" source="9" target="5">
                    <mxGeometry relative="1" as="geometry"/>
                </mxCell>
                <mxCell id="14" style="edgeStyle=none;html=1;exitX=0;exitY=1;exitDx=0;exitDy=0;entryX=0.5;entryY=0;entryDx=0;entryDy=0;" edge="1" parent="1" source="9" target="8">
                    <mxGeometry relative="1" as="geometry"/>
                </mxCell>
                <mxCell id="16" style="edgeStyle=none;html=1;exitX=1;exitY=0.5;exitDx=0;exitDy=0;entryX=0.5;entryY=0;entryDx=0;entryDy=0;" edge="1" parent="1" source="9" target="4">
                    <mxGeometry relative="1" as="geometry"/>
                </mxCell>
                <mxCell id="9" value="PlantPage" style="whiteSpace=wrap;html=1;" vertex="1" parent="1">
                    <mxGeometry x="390" y="190" width="120" height="60" as="geometry"/>
                </mxCell>
                <mxCell id="20" value="pass down props: plants, addPlant, updatePlant, &lt;br&gt;searchPlant, updatePrice, deletePrice" style="text;html=1;align=center;verticalAlign=middle;resizable=0;points=[];autosize=1;strokeColor=none;fillColor=none;" vertex="1" parent="1">
                    <mxGeometry x="450" y="125" width="280" height="40" as="geometry"/>
                </mxCell>
                <mxCell id="21" value="pass down props: plants, &lt;br&gt;updatePlant, updatePrice, deletePrice" style="text;html=1;align=center;verticalAlign=middle;resizable=0;points=[];autosize=1;strokeColor=none;fillColor=none;" vertex="1" parent="1">
                    <mxGeometry x="590" y="245" width="220" height="40" as="geometry"/>
                </mxCell>
                <mxCell id="22" value="pass down props: plants,&lt;br&gt;updatePlant, updatePrice, deletePrice" style="text;html=1;align=center;verticalAlign=middle;resizable=0;points=[];autosize=1;strokeColor=none;fillColor=none;" vertex="1" parent="1">
                    <mxGeometry x="700" y="480" width="220" height="40" as="geometry"/>
                </mxCell>
                <mxCell id="23" value=".map over plants" style="text;html=1;align=center;verticalAlign=middle;resizable=0;points=[];autosize=1;strokeColor=none;fillColor=none;" vertex="1" parent="1">
                    <mxGeometry x="700" y="420" width="110" height="30" as="geometry"/>
                </mxCell>
                <mxCell id="24" value="pass down props:&amp;nbsp;addPlant" style="text;html=1;align=center;verticalAlign=middle;resizable=0;points=[];autosize=1;strokeColor=none;fillColor=none;" vertex="1" parent="1">
                    <mxGeometry x="450" y="305" width="170" height="30" as="geometry"/>
                </mxCell>
                <mxCell id="26" value="pass down props: searchPlant" style="text;html=1;align=center;verticalAlign=middle;resizable=0;points=[];autosize=1;strokeColor=none;fillColor=none;" vertex="1" parent="1">
                    <mxGeometry x="105" y="250" width="180" height="30" as="geometry"/>
                </mxCell>
            </root>
        </mxGraphModel>
    </diagram>
</mxfile>